<?xml version="1.0" encoding="UTF-8" standalone="no"?>
<!-- Generator: Adobe Illustrator 19.2.1, SVG Export Plug-In . SVG Version: 6.00 Build 0)  -->

<svg
   xmlns:dc="http://purl.org/dc/elements/1.1/"
   xmlns:cc="http://creativecommons.org/ns#"
   xmlns:rdf="http://www.w3.org/1999/02/22-rdf-syntax-ns#"
   xmlns:svg="http://www.w3.org/2000/svg"
   xmlns="http://www.w3.org/2000/svg"
   xmlns:sodipodi="http://sodipodi.sourceforge.net/DTD/sodipodi-0.dtd"
   xmlns:inkscape="http://www.inkscape.org/namespaces/inkscape"
   version="1.1"
   id="layer"
   x="0px"
   y="0px"
   viewBox="0 0 213 39"
   xml:space="preserve"
   sodipodi:docname="douglas-elliman-real-estate-logo-vector.svg"
   width="213"
   height="39"
   inkscape:version="0.92.4 (5da689c313, 2019-01-14)"><metadata
   id="metadata17"><rdf:RDF><cc:Work
       rdf:about=""><dc:format>image/svg+xml</dc:format><dc:type
         rdf:resource="http://purl.org/dc/dcmitype/StillImage" /><dc:title></dc:title></cc:Work></rdf:RDF></metadata><defs
   id="defs15" /><sodipodi:namedview
   pagecolor="#ffffff"
   bordercolor="#666666"
   borderopacity="1"
   objecttolerance="10"
   gridtolerance="10"
   guidetolerance="10"
   inkscape:pageopacity="0"
   inkscape:pageshadow="2"
   inkscape:window-width="1110"
   inkscape:window-height="762"
   id="namedview13"
   showgrid="false"
   inkscape:zoom="2.8957055"
   inkscape:cx="75.70528"
   inkscape:cy="22.228531"
   inkscape:window-x="36"
   inkscape:window-y="1166"
   inkscape:window-maximized="0"
   inkscape:current-layer="layer" />
<style
   type="text/css"
   id="style2">
	.st0{fill:#009ABF;}
	.st1{fill:#4C4948;}
</style>
<g
   id="g10"
   style="fill:#000000;fill-opacity:1"
   transform="matrix(0.35160807,0,0,0.33759124,-7.0777669,-90.075225)">
	<g
   id="g8"
   style="fill:#000000;fill-opacity:1">
		<path
   class="st0"
   d="m 481.7,305.7 c 2.1,0 3.7,-1.7 3.7,-3.7 0,-2.1 -1.7,-3.7 -3.7,-3.7 -2.1,0 -3.7,1.7 -3.7,3.7 0,2 1.7,3.7 3.7,3.7 m -64.6,43.7 h -11.3 v -27.7 h 6.1 c 8.7,0 9.5,3.8 9.5,10.1 h 1.3 v -22 h -1.3 c 0,5.4 -0.8,10.6 -9.4,10.6 h -6.2 v -26.7 h 13 c 8.8,0 15.1,3.2 15.1,12.8 h 1.3 l -1,-14.1 h -40.3 v 1.3 h 3.5 v 55.7 h -3.5 v 1.3 h 44.5 v -17 H 437 c 0,14.1 -6.5,15.7 -19.9,15.7 m 68.7,-34.5 c -1.7,1.7 -4.3,1.8 -7,1.8 H 476 v 1.3 h 2.8 v 31.3 H 476 v 1.3 h 12.6 v -1.3 h -2.8 z m -31.3,34.5 h -2.8 v -59.6 c -1.7,1.9 -4.3,2.1 -7,2.1 h -2.8 v 1.3 h 2.8 v 56.2 h -2.8 v 1.3 h 12.6 z m 17.2,0 h -2.8 v -59.6 c -1.7,1.9 -4.3,2.1 -7,2.1 h -2.8 v 1.3 h 2.8 v 56.2 h -2.8 v 1.3 h 12.6 z m 152.3,0 v -25.1 c 0,-4.9 -2.5,-9.4 -11.3,-9.4 -6,0 -10.2,4.5 -12.3,8.5 h -0.2 v -8.5 c -1.5,1.8 -3,1.8 -7,1.8 h -2.7 v 1.3 h 2.7 v 31.3 h -2.7 v 1.3 h 12.2 v -1.3 h -2.5 V 326 c 1.5,-2.8 5.1,-9.8 12,-9.8 2.7,0 4.9,1.5 4.9,6 v 27.1 h -2.7 v 1.3 h 12.4 v -1.3 H 624 Z m -48.6,-6 c 0,1.7 -2.7,6.3 -8.9,6.3 -5.3,0 -6,-3.5 -6,-8.1 0,-8.9 7.5,-9 13.6,-9 h 1.4 v 10.8 z m 9.4,6.5 c -2.2,0 -2.5,-2.1 -2.5,-3.6 v -21.7 c 0,-6.4 -7.5,-9.6 -13.7,-9.6 -8.3,0 -12.8,4.6 -12.8,8.9 0,2.8 1.3,4.6 3.6,4.6 2.2,0 3.8,-1.5 3.8,-3.5 0,-3.7 -2.7,-2.8 -2.7,-4.8 0,-3 5.6,-3.9 8,-3.9 3.1,0 6.8,0.9 6.8,4.8 v 10.2 h -1.6 c -8.5,0 -20.9,2.3 -20.9,11.6 0,5.6 3.9,8.9 10.4,8.9 5.5,0 9.2,-1.4 12,-5.1 h 0.2 c 0.6,2.9 3.4,5.1 7.3,5.1 3.6,0 5.7,-1.7 7.3,-4.5 l -0.9,-0.7 c -1.2,1.7 -2.4,3.3 -4.3,3.3 M 105.7,320.7 v 8.5 H 94.3 v 24.1 c 9.4,-4.4 16.2,-13.4 17.4,-24.1 h 8.5 c -1.6,18.4 -16.1,33.2 -34.4,35.2 v -77 c 17.7,1.9 31.8,15.8 34.2,33.3 h -8.6 c -1.7,-9.9 -8.3,-18.1 -17.1,-22.2 v 22.2 z M 77.4,364.4 C 58,362.3 42.9,345.8 42.9,325.9 42.9,306 58,289.5 77.4,287.4 Z m 4.1,-83.1 c -24.6,0 -44.6,20 -44.6,44.6 0,24.6 20,44.6 44.6,44.6 24.6,0 44.6,-20 44.6,-44.6 0,-24.6 -20,-44.6 -44.6,-44.6 m 0,93.9 c -27.2,0 -49.3,-22.1 -49.3,-49.3 0,-27.2 22.1,-49.3 49.3,-49.3 27.2,0 49.3,22.1 49.3,49.3 0,27.2 -22.1,49.3 -49.3,49.3 m 0,-104.1 c -30.2,0 -54.8,24.6 -54.8,54.8 0,30.2 24.6,54.8 54.8,54.8 30.2,0 54.8,-24.6 54.8,-54.8 0,-30.2 -24.6,-54.8 -54.8,-54.8 m -12.6,82.3 v -54.9 c -10.4,4.8 -17.5,15.3 -17.5,27.4 -0.1,12.2 7.1,22.6 17.5,27.5 m 435,-4 h -2.5 V 326 c 2.4,-5.9 6.1,-9.8 11.1,-9.8 3.3,0 5.4,1.6 5.4,5.7 v 27.4 h -2.7 v 1.3 h 12.2 v -1.3 h -2.5 v -22.1 c 1.7,-5.8 5.9,-11 10.7,-11 3.1,0 5.8,1.3 5.8,7.3 v 25.8 h -2.7 v 1.3 h 12.4 v -1.3 h -2.7 V 325 c 0,-5.2 -2.8,-10 -11.3,-10.1 -6.2,-0.1 -10.4,4.1 -12,8.9 h -0.2 c -0.7,-7.4 -6,-8.9 -11.3,-8.9 -6.2,0 -9.7,4.1 -11.9,8.1 h -0.2 v -8.1 c -1.5,1.8 -3,1.8 -7,1.8 h -2.7 v 1.3 h 2.7 v 31.3 h -2.7 v 1.3 H 504 v -1.2 z"
   id="path4"
   style="fill:#000000;fill-opacity:1"
   inkscape:connector-curvature="0" />
		<path
   class="st1"
   d="m 199.2,309.7 c -0.4,-1 -0.9,-2.1 -1.4,-3.1 0.5,0.9 1,2 1.4,3.1 m -28.6,39.4 h -6.9 v -55.2 h 3.8 c 21.6,0 24.1,15.8 24.1,27.6 0.1,22.8 -11.3,27.6 -21,27.6 m 2.5,-57 h -22.4 v 1.8 h 4.1 v 55.2 h -4.1 v 1.8 h 22.4 c 17.3,0 28.4,-11.5 28.4,-29.4 0,-6.7 -2.2,-13.8 -5.9,-18.9 -4.9,-6.8 -12.7,-10.5 -22.5,-10.5 m 178.5,51.3 c 0,1.5 -2.6,6.1 -8.7,6.1 -4.9,0 -5.8,-2.9 -5.8,-7.9 0,-8.8 7.7,-8.8 13.3,-8.8 h 1.2 z m 13.8,3 c -1.2,1.7 -2.3,3.2 -4.1,3.2 -1.6,0 -2.2,-1.1 -2.2,-3.4 v -21.7 c 0,-3 -1.6,-5.6 -4.6,-7.4 -2.6,-1.6 -6,-2.4 -9.4,-2.4 -8.4,0 -13,4.7 -13,9.1 0,3 1.5,4.9 3.9,4.9 2.3,0 4,-1.6 4,-3.7 0,-2.3 -1,-2.9 -1.8,-3.5 -0.5,-0.4 -0.9,-0.6 -0.9,-1.3 0,-2.7 5.4,-3.7 7.8,-3.7 3,0 6.6,0.8 6.6,4.6 v 9.9 h -1.3 c -10.2,0 -21.1,3.1 -21.1,11.8 0,5.7 4,9.1 10.6,9.1 5.7,0 9.3,-1.5 12,-5 0.8,3 3.8,5 7.4,5 3.3,0 5.7,-1.5 7.5,-4.6 l 0.1,-0.2 -1.3,-0.9 z m 60.3,25.2 h 9.2 V 369 h -9.2 v -4.8 h 9.9 v -2.8 h -13.1 v 18.2 h 13.3 v -2.8 h -10.1 z m -20.1,-1.9 h -5.2 V 364 h 5.2 c 1.7,0 3.2,0.5 3.2,2.8 -0.1,1.9 -1.2,2.9 -3.2,2.9 m 3.3,1.3 v 0 c 0.6,-0.3 3,-1.1 3,-4.6 0,-3.1 -2,-4.9 -6,-4.9 h -8.7 v 18.2 h 3.2 v -7.5 h 4.7 c 2.9,0 3.6,1.5 3.6,4.8 0,0.9 0,1.9 0.5,2.7 h 3.4 c -0.7,-0.7 -1,-2.7 -1,-4.8 0,-2.9 -1.6,-3.7 -2.7,-3.9 M 230.2,336.5 c 0,8 -0.7,13.6 -9.4,13.6 -8.7,0 -9.4,-5.6 -9.4,-13.6 V 330 c 0,-8 0.7,-13.6 9.4,-13.6 8.7,0 9.4,5.6 9.4,13.6 z m -9.3,-21.9 c -11.1,0 -17.8,9.5 -17.8,18.6 0,9.2 6.7,18.6 17.8,18.6 11.1,0 17.8,-9.5 17.8,-18.6 0,-9.1 -6.7,-18.6 -17.8,-18.6 m 72.2,23.6 c -6.6,0 -6.6,-5.5 -6.6,-10.9 0,-4.3 0,-10.9 6.6,-10.9 6.6,0 6.6,4.3 6.6,10.9 0,5.8 0,10.9 -6.6,10.9 m 8.1,15.3 c 5.1,0 7.5,1.7 7.5,5.3 0,6.6 -6.2,13.4 -16.5,13.4 -11.3,0 -12.2,-7.2 -12.2,-9.5 0,-5.2 2.3,-8.2 7.3,-9.3 h 13.9 z m 8,-38.9 c -2.8,0 -4.9,1.8 -6.4,3.5 -2.3,-2.2 -5.7,-3.5 -9.7,-3.5 -7.7,0 -14,5.9 -14,13.2 0,4.7 2.8,7.3 5.9,9.4 -5.3,0.2 -7.8,2.9 -7.8,8.4 0,4.8 2.3,7.6 6.3,7.9 -3.7,1.8 -7.8,5.3 -7.8,9.6 0,8.1 8.4,10.9 16.2,10.9 5.2,0 10,-1.6 13.5,-4.6 3.9,-3.2 5.9,-7.8 5.9,-13.1 0,-6.4 -3.3,-9.8 -9.4,-9.8 h -19.4 c -2,0 -3.4,-1.3 -3.4,-3.2 0,-3.2 2.6,-4.9 7.8,-5 0.1,0 0.2,0.1 0.3,0.1 1,0.5 2.8,1.3 6,1.3 3.2,0 6.8,-1.3 9.4,-3.6 2.9,-2.4 4.5,-5.6 4.5,-8.9 0,-2.9 -1.2,-6.1 -3.2,-8.3 1,-1.3 2.5,-2.4 3.8,-2.7 -0.3,0.5 -0.6,1.1 -0.6,2.4 0,1.4 1.2,2.8 2.9,2.8 1.6,0 3.5,-0.8 3.5,-3.1 0.1,-2.1 -1.6,-3.7 -4.3,-3.7 m -37.1,-0.3 -0.4,0.4 c -1.6,1.6 -4.2,1.8 -6.8,1.8 h -3 v 1.8 h 2.7 v 19.4 c 0,6.3 -5.3,12.4 -10.7,12.4 -3,0 -4.9,-2.1 -4.9,-5.6 v -30.2 l -0.4,0.4 c -1.6,1.6 -4.2,1.8 -6.8,1.8 h -3 v 1.8 h 2.8 v 24.2 c 0,2.8 1.1,9.4 11.5,9.4 7,0 10.5,-6 11.5,-8 v 7 h 10.2 v -1.8 H 272 v -34.8 z m 52.1,-25.2 -0.4,0.5 c -1.6,1.8 -4.2,2 -6.8,2 h -3 v 1.8 h 2.8 v 55.7 H 314 v 1.8 h 13 v -1.8 h -2.8 z m 58.2,39.8 -2.8,-0.2 c -5.9,-0.4 -8.5,-2.1 -8.5,-5.9 0,-3.9 2.9,-6.4 7.4,-6.4 6.9,0 8.9,4.8 9.4,8.8 v 0.2 h 1.5 l -0.3,-10.3 h -1.6 v 0.9 c 0,1.1 -0.1,1.5 -0.3,1.5 -0.2,0 -0.7,-0.3 -1.2,-0.6 -1.5,-0.9 -4,-2.3 -7.2,-2.3 -6.2,0 -10.6,4.5 -10.6,10.9 0,9 5.7,9.6 10.8,10.2 l 0.8,0.1 c 4.1,0.4 8.3,0.9 8.3,6.8 0,4.4 -3.2,7.5 -7.8,7.5 -6.2,0 -10.1,-4 -11.3,-11.5 v -0.2 h -1.5 l 0.2,12.7 v 0.2 h 1.7 v -0.2 c 0,-0.4 0.1,-0.8 0.1,-1.1 0.1,-1.3 0.1,-1.8 0.7,-1.8 0.5,0 1.1,0.4 1.8,0.9 1.6,1.1 4,2.7 8.4,2.7 6.8,0 11.8,-5.5 11.8,-13 -0.1,-6.2 -3.4,-9.5 -9.8,-9.9 m 67.9,43.5 2.8,-7.8 h 0.1 l 2.7,7.8 z m 1.1,-11 -7,18.2 h 3.3 l 1.7,-4.8 h 7.3 l 1.7,4.8 h 3.4 l -7,-18.2 z m 163,10.2 h 9.2 V 369 h -9.2 v -4.8 h 9.9 v -2.8 h -13.1 v 18.2 h 13.3 v -2.8 h -10.1 z m -41.4,0.8 2.8,-7.8 h 0.1 l 2.7,7.8 z m 1.1,-11 -7,18.2 h 3.3 l 1.7,-4.8 h 7.3 l 1.7,4.8 h 3.4 l -7,-18.2 z m 15.2,2.8 h 5.8 v 15.5 h 3.2 v -15.5 h 5.8 v -2.8 h -14.7 v 2.8 z m -114.8,-2.8 h -3.2 v 18.2 h 12.4 v -2.8 h -9.3 v -15.4 z m 63.5,8.3 c -0.9,-0.3 -5,-1.3 -5.3,-1.4 -1.3,-0.4 -2.2,-1.1 -2.2,-2.3 0,-1.8 1.9,-2.4 3.3,-2.4 2.2,0 3.8,0.9 3.9,3.2 h 3.2 c 0,-3.8 -3.2,-5.8 -7,-5.8 -3.3,0 -6.7,1.7 -6.7,5.4 0,1.9 0.9,3.8 4,4.6 2.5,0.7 4.2,1 5.4,1.5 0.7,0.3 1.5,0.8 1.5,2.2 0,1.4 -1,2.8 -3.9,2.8 -2.5,0 -4.6,-1.1 -4.6,-3.9 h -3.2 c 0.1,4.5 3.4,6.5 7.6,6.5 3.6,0 7.2,-1.6 7.2,-5.7 0.3,-1.9 -0.8,-4 -3.2,-4.7 m 10.1,-5.5 h 5.8 v 15.5 h 3.2 v -15.5 h 5.8 v -2.8 h -14.7 v 2.8 z m -41.4,7.4 h 9.2 V 369 h -9.2 v -4.8 h 9.9 v -2.8 h -13.1 v 18.2 h 13.3 v -2.8 h -10.1 z m 69,-64.6 h 2 v -7.9 h 2.9 v -1.7 h -7.8 v 1.7 h 2.9 z m 18.9,0 h 1.9 v -9.5 H 595 c 0,0.1 0,0.2 -0.1,0.4 -0.1,0.3 -0.2,0.5 -0.4,0.7 -0.2,0.2 -0.5,0.4 -0.9,0.5 -0.2,0.1 -0.6,0.1 -1.2,0.1 v 1.3 h 2.2 z m 18.1,0 h 1.9 v -9.5 H 613 c 0,0.1 0,0.2 -0.1,0.4 -0.1,0.3 -0.2,0.5 -0.4,0.7 -0.2,0.2 -0.5,0.4 -0.9,0.5 -0.2,0.1 -0.6,0.1 -1.2,0.1 v 1.3 h 2.2 V 307 Z M 560,305.2 h -5.3 v -2.5 h 4.7 V 301 h -4.7 v -2 h 5.1 v -1.7 h -7 v 9.6 h 7.3 v -1.7 z m 60.9,1.8 h 1.9 v -9.5 h -1.6 c 0,0.1 0,0.2 -0.1,0.4 -0.1,0.3 -0.2,0.5 -0.4,0.7 -0.2,0.2 -0.5,0.4 -0.9,0.5 -0.2,0.1 -0.6,0.1 -1.2,0.1 v 1.3 h 2.2 v 6.5 z m -37.2,-2 h -2 v 2 h 2 z m 19.6,-5.7 c 0.2,-0.2 0.5,-0.3 0.8,-0.3 0.4,0 0.8,0.2 1,0.5 0.2,0.3 0.4,0.7 0.4,1.3 0,0.7 -0.2,1.1 -0.6,1.4 -0.2,0.1 -0.5,0.2 -0.7,0.2 -0.5,0 -0.8,-0.1 -1.1,-0.4 -0.2,-0.3 -0.3,-0.7 -0.3,-1.3 0,-0.7 0.2,-1.2 0.5,-1.4 m 0.5,4.6 c 0.5,0 0.9,-0.1 1.3,-0.3 0.2,-0.1 0.4,-0.3 0.5,-0.5 0,0.7 -0.1,1.3 -0.3,1.6 -0.3,0.7 -0.7,1 -1.3,1 -0.3,0 -0.6,-0.1 -0.8,-0.3 -0.2,-0.2 -0.3,-0.4 -0.4,-0.7 h -1.9 c 0.1,0.8 0.4,1.4 1,1.8 0.6,0.4 1.2,0.6 1.9,0.6 1.5,0 2.5,-0.7 3.1,-2.2 0.3,-0.8 0.4,-1.7 0.4,-2.9 0,-1.2 -0.2,-2.1 -0.5,-2.8 -0.5,-1.3 -1.5,-1.9 -3,-1.9 -0.9,0 -1.7,0.3 -2.3,0.9 -0.6,0.6 -0.9,1.4 -0.9,2.5 0,1 0.3,1.7 0.9,2.2 0.8,0.7 1.5,1 2.3,1 m -36,1.5 c -0.3,0.1 -0.7,0.2 -1.2,0.2 -0.8,0 -1.4,-0.2 -1.7,-0.6 -0.2,-0.2 -0.3,-0.5 -0.4,-1 h -1.9 c 0,1 0.4,1.8 1.1,2.4 0.7,0.6 1.7,0.9 3,0.9 1.2,0 2.2,-0.3 2.9,-0.9 0.7,-0.6 1,-1.3 1,-2.2 0,-0.9 -0.3,-1.5 -0.9,-2 -0.4,-0.3 -0.9,-0.5 -1.7,-0.7 l -1.7,-0.4 c -0.6,-0.2 -1.1,-0.3 -1.3,-0.4 -0.3,-0.2 -0.5,-0.4 -0.5,-0.8 0,-0.4 0.2,-0.7 0.5,-0.9 0.3,-0.2 0.7,-0.3 1.3,-0.3 0.5,0 0.9,0.1 1.2,0.2 0.5,0.2 0.7,0.7 0.8,1.2 h 1.9 c 0,-1 -0.4,-1.8 -1.1,-2.3 -0.7,-0.5 -1.6,-0.8 -2.6,-0.8 -1.2,0 -2.2,0.3 -2.8,0.9 -0.6,0.6 -1,1.3 -1,2.1 0,0.9 0.3,1.6 1,2.1 0.4,0.3 1.1,0.5 2.1,0.7 l 1,0.2 c 0.6,0.1 1.1,0.3 1.3,0.4 0.3,0.2 0.4,0.4 0.4,0.7 0.2,0.8 -0.1,1.1 -0.7,1.3"
   id="path6"
   style="fill:#000000;fill-opacity:1"
   inkscape:connector-curvature="0" />
	</g>
</g>
</svg>