<svg xmlns="http://www.w3.org/2000/svg" width="212.172" height="71.68" viewBox="0 0 212.172 71.68"><g transform="translate(-121 -64)"><g transform="translate(121.149 -256.781)"><path d="M9.8,352.4a6.792,6.792,0,0,1,.846,3.387V373.43a5.122,5.122,0,0,1-1.513,3.783,5.356,5.356,0,0,1-3.982,1.512,5.264,5.264,0,0,1-3.861-1.4,4.873,4.873,0,0,1-1.4-3.606V358.286H2.869v17.363a2.733,2.733,0,0,0,.617,1.824,2.031,2.031,0,0,0,1.641.741A2.314,2.314,0,0,0,6.9,377.5a2.58,2.58,0,0,0,.677-1.825v-19.8a4.924,4.924,0,0,0-.089-1.094,6.811,6.811,0,0,0-.468-1.042L.35,342.851c-.329-.49-.5-1.74-.5-3.742V326.082A5.125,5.125,0,0,1,1.365,322.3a5.352,5.352,0,0,1,3.981-1.511,4.726,4.726,0,0,1,3.783,1.73,5.974,5.974,0,0,1,1.483,4v13.017H7.626V323.9c0-1.709-.746-2.574-2.249-2.574l-.081,0a2.448,2.448,0,0,0-2.378,2.491c0,.025,0,.05,0,.074V340.62a2.844,2.844,0,0,0,.348,1.21Z" transform="translate(0)"/><path d="M113.905,379.084H100.429v-.522h2.6V322.544h-2.6v-.521h13.476v15.154h-.557q0-8.89-.916-11.766c-.607-1.918-1.99-2.867-4.209-2.867h-2.18v24.847a2.794,2.794,0,0,0,2.568-1.574q.881-1.563.876-6.253h.568v16.1h-.568c0-3.127-.269-5.148-.806-6.253a2.585,2.585,0,0,0-2.419-1.574l-.219,30.651h2.18a4,4,0,0,0,4.18-2.9q.936-2.907.946-11.735h.557v15.227Z" transform="translate(-64.586 -0.798)"/><path d="M218.312,362.607V322.544h-2.747v-.521h6.32v.521h-2.6v57.051h-1l-10.023-57.051v56.019h2.668v.522h-6.321v-.522h2.668V322.544h-2.668v-.521h6.63l7.067,40.584Z" transform="translate(-131.489 -0.798)"/><path d="M320.231,362.46l-2.23,16.1h2.658v.522h-6.29v-.522h2.667l7.554-56.539h1l6.112,56.539h2.667v.522h-8.291v-.522h2.658l-1.821-16.1Zm.149-1.094h6.409l-2.9-26.837-3.514,26.837Z" transform="translate(-201.967 -0.798)"/><path d="M438.493,379.078h-8.42v-.522h2.587V322.537h-2.587v-.521h8.42a4.731,4.731,0,0,1,3.822,1.73,6.062,6.062,0,0,1,1.443,4.013v46.368a4.884,4.884,0,0,1-1.4,3.606,5.236,5.236,0,0,1-3.861,1.345Zm-2.807-.522h2.748a2.059,2.059,0,0,0,1.661-.73,2.644,2.644,0,0,0,.627-1.771V325.143c0-1.72-.766-2.574-2.288-2.574h-2.767l.02,55.987Z" transform="translate(-276.266 -0.791)"/><path d="M542.737,362.46l-2.229,16.1h2.657v.522h-6.29v-.522h2.667l7.554-56.539h1l6.111,56.539h2.668v.522H548.58v-.522h2.657l-1.82-16.1Zm.149-1.094H549.3L546.39,334.53Z" transform="translate(-344.849 -0.798)"/><ellipse cx="1.145" cy="1.198" rx="1.145" ry="1.198" transform="translate(21.669 350.783)"/><ellipse cx="1.145" cy="1.198" rx="1.145" ry="1.198" transform="translate(59.87 350.783)"/><ellipse cx="1.145" cy="1.198" rx="1.145" ry="1.198" transform="translate(100.677 350.783)"/><ellipse cx="1.145" cy="1.198" rx="1.145" ry="1.198" transform="translate(140.758 350.783)"/><ellipse cx="1.145" cy="1.198" rx="1.145" ry="1.198" transform="translate(181.934 350.783)"/><path d="M3.731,510.674H1.4l-.348.782a.749.749,0,0,0,0,.24c0,.083.07.135.2.177v.115H.078v-.093a.6.6,0,0,0,.4-.365l1.533-3.512a1.527,1.527,0,0,0,.13-.407c0-.083-.07-.135-.209-.145v-.125H3.224v.125c-.13,0-.2.073-.2.166a.4.4,0,0,0,0,.146,1.46,1.46,0,0,1,.06.156l.079.146,1.4,3.23c.09.177.169.324.229.417a.413.413,0,0,0,.289.167v.114H3.92v-.114a.168.168,0,0,0,.189-.156v-.074l-.378-.99Zm-.189-.459-1-2.283-1,2.283Z" transform="translate(-0.146 -119.797)"/><path d="M21.648,507.145V510.9a.354.354,0,0,0,.05.229.374.374,0,0,0,.209.125v.115H20.821v-.052a.4.4,0,0,0,.2-.115.412.412,0,0,0,0-.239v-3.814H19.577a.3.3,0,0,0-.348.271h-.1v-.98h.1a.383.383,0,0,0,.119.208.421.421,0,0,0,.229.052h3.474a.36.36,0,0,0,.229-.062.367.367,0,0,0,.11-.2h.11v.98h-.11a.458.458,0,0,0-.11-.209.382.382,0,0,0-.239-.062Z" transform="translate(-12.38 -119.218)"/><path d="M55.344,511.963v-.093a.306.306,0,0,0,.259-.355v-3.721a.41.41,0,0,0-.06-.25.4.4,0,0,0-.2-.115v-.115H57.6a4.31,4.31,0,0,1,.667,0,2.377,2.377,0,0,1,.6.146,1.539,1.539,0,0,1,.508.354,1.889,1.889,0,0,1,.378.511,2.367,2.367,0,0,1,.239.625,3,3,0,0,1,.079.657,2.749,2.749,0,0,1-.179,1.042,2.081,2.081,0,0,1-.517.8,1.727,1.727,0,0,1-.767.437,4.388,4.388,0,0,1-1,.1l-2.268-.031Zm.826-.459h1.4a5.2,5.2,0,0,0,.577,0,1.922,1.922,0,0,0,.488-.156,1.078,1.078,0,0,0,.408-.333,2.052,2.052,0,0,0,.428-1.355,2.019,2.019,0,0,0-.428-1.366,1.134,1.134,0,0,0-.617-.406,2.993,2.993,0,0,0-.856-.1h-1.4Z" transform="translate(-35.635 -119.774)"/><path d="M82.957,509.349a2.515,2.515,0,0,1-.2.979,2.281,2.281,0,0,1-.577.8,3.143,3.143,0,0,1-3.812,0,2.242,2.242,0,0,1-.577-.792,2.425,2.425,0,0,1-.2-1.042,2.356,2.356,0,0,1,.2-.979,2.291,2.291,0,0,1,.577-.8,2.391,2.391,0,0,1,.866-.49,3.382,3.382,0,0,1,.994-.156,2.78,2.78,0,0,1,1.9.646,2.282,2.282,0,0,1,.577.8,2.51,2.51,0,0,1,.249,1.032Zm-.6,0a1.854,1.854,0,0,0-.279-1.042,2.014,2.014,0,0,0-.767-.678,2.473,2.473,0,0,0-2.079,0,1.891,1.891,0,0,0-.767.678,1.985,1.985,0,0,0,0,2.084,1.831,1.831,0,0,0,.767.677,2.375,2.375,0,0,0,2.079,0,1.879,1.879,0,0,0,.767-.677,1.859,1.859,0,0,0,.279-1.042Z" transform="translate(-49.921 -119.494)"/><path d="M101.653,507.394v-.115h1.085v.115a.346.346,0,0,0-.209.115.461.461,0,0,0-.05.239v2.606a1.148,1.148,0,0,0,.279.907,1.918,1.918,0,0,0,1.223.3,1.744,1.744,0,0,0,1.294-.364,1.13,1.13,0,0,0,.209-.782v-2.669a.369.369,0,0,0-.06-.239.286.286,0,0,0-.2-.115v-.115h1v.115a.287.287,0,0,0-.2.115.378.378,0,0,0-.06.239v2.513a3.89,3.89,0,0,1-.08.854,1.039,1.039,0,0,1-.4.563,1.643,1.643,0,0,1-.667.3,5.6,5.6,0,0,1-.876.063h-.616a2.687,2.687,0,0,1-.558-.136,1.448,1.448,0,0,1-.468-.292,1.051,1.051,0,0,1-.318-.553,4.109,4.109,0,0,1-.06-.781v-2.513a.378.378,0,0,0-.06-.239.29.29,0,0,0-.209-.136Z" transform="translate(-65.372 -119.759)"/><path d="M128.327,507.611l-.538.906h-.09a1.047,1.047,0,0,0,0-.177.208.208,0,0,0-.06-.145.676.676,0,0,0-.189-.135l-.12-.074a2.506,2.506,0,0,0-1.263-.374,2.134,2.134,0,0,0-1,.239,1.914,1.914,0,0,0-.736.688,1.823,1.823,0,0,0-.279,1.042,1.94,1.94,0,0,0,.269,1.042,1.88,1.88,0,0,0,.746.667,2.291,2.291,0,0,0,1,.23,3.01,3.01,0,0,0,.855-.136,2.132,2.132,0,0,0,.736-.407v-.854h-1a.342.342,0,0,0-.229.052.38.38,0,0,0-.109.219h-.12V509.4h.12a.337.337,0,0,0,.109.209.419.419,0,0,0,.229.052h1.752v.114a.286.286,0,0,0-.2.115.409.409,0,0,0,0,.24v.49a.41.41,0,0,0,0,.24.284.284,0,0,0,.2.115v.094a3.459,3.459,0,0,1-1.105.7,3.382,3.382,0,0,1-1.253.229,2.671,2.671,0,0,1-1.821-.6,2.44,2.44,0,0,1-.587-.792,2.35,2.35,0,0,1-.219-.959,2.428,2.428,0,0,1,.776-1.824,2.564,2.564,0,0,1,.846-.49,2.95,2.95,0,0,1,1-.167,3.356,3.356,0,0,1,1.691.48l.169.084a.351.351,0,0,0,.12,0c.06,0,.12,0,.189-.167l.11.053Z" transform="translate(-79.356 -119.684)"/><path d="M147.5,511.537h2.726a.357.357,0,0,0,.229-.053.3.3,0,0,0,.109-.208h.109v.99h-.109a.281.281,0,0,0-.339-.261h-3.542v-.093a.32.32,0,0,0,.2-.116.508.508,0,0,0,.05-.239v-3.721a.485.485,0,0,0-.05-.24.313.313,0,0,0-.2-.115v-.115h1.075v.115a.287.287,0,0,0-.2.115.374.374,0,0,0-.059.24v3.7Z" transform="translate(-94.288 -119.816)"/><path d="M169.4,510.674h-2.329l-.349.782a.57.57,0,0,0-.06.24c0,.083.08.135.209.177v.115h-1.105v-.093a.6.6,0,0,0,.408-.365l1.533-3.512a1.378,1.378,0,0,0,.12-.407c0-.083-.06-.135-.2-.145v-.125h1.294v.125c-.13,0-.2.073-.2.166a.389.389,0,0,0,0,.146.221.221,0,0,0,.059.156c.06.063.05.1.08.146l1.4,3.23a3.352,3.352,0,0,0,.229.417.417.417,0,0,0,.289.167v.114h-1.164v-.114a.168.168,0,0,0,.189-.156v-.074l-.408-.99Zm-.189-.459-1-2.283-1,2.283Z" transform="translate(-106.539 -119.797)"/><path d="M192.049,507.53l-.428.9h-.1c0-.059,0-.118,0-.177a.149.149,0,0,0-.08-.126.765.765,0,0,0-.179-.1,2.52,2.52,0,0,0-1.294-.3,2.564,2.564,0,0,0-1.065.208.73.73,0,0,0-.488.72.675.675,0,0,0,.109.364.624.624,0,0,0,.3.23,2.377,2.377,0,0,0,.548.1h.846a7.714,7.714,0,0,1,.856.063,1.439,1.439,0,0,1,.578.209.941.941,0,0,1,.378.416,1.254,1.254,0,0,1,.129.573,1.172,1.172,0,0,1-.318.834,1.874,1.874,0,0,1-.8.469,2.844,2.844,0,0,1-.926.145,3.853,3.853,0,0,1-1.513-.292c-.229-.1-.428-.2-.6-.292a.153.153,0,0,0-.09,0,.253.253,0,0,0-.149.094v.053l-.089-.063.507-.886.09.052a.331.331,0,0,0,0,.177.154.154,0,0,0,.05.094.469.469,0,0,0,.129.1l.14.093.089.053a3.053,3.053,0,0,0,1.483.375,2.609,2.609,0,0,0,.677-.093,1.386,1.386,0,0,0,.6-.3.719.719,0,0,0,.249-.573.677.677,0,0,0-.11-.354.564.564,0,0,0-.279-.229,1.328,1.328,0,0,0-.349-.084,2.823,2.823,0,0,0-.468,0h-.3l-.856-.063a2.388,2.388,0,0,1-.6-.135,1.312,1.312,0,0,1-.527-.375,1.072,1.072,0,0,1-.2-.688,1.132,1.132,0,0,1,.308-.823,1.973,1.973,0,0,1,.786-.469,3.285,3.285,0,0,1,.926-.146,3.927,3.927,0,0,1,1.742.4h.14c.06,0,.11-.052.159-.145Z" transform="translate(-120.613 -119.759)"/><path d="M225.1,509.36v1.719h2.757a.346.346,0,0,0,.229-.052.311.311,0,0,0,.109-.209h.12v.991h-.12a.309.309,0,0,0-.109-.208.347.347,0,0,0-.229-.053H224.28v-.1a.317.317,0,0,0,.2-.116.483.483,0,0,0,.05-.239v-3.721a.462.462,0,0,0-.05-.24.311.311,0,0,0-.2-.114V506.9h3.544a.368.368,0,0,0,.239-.063.36.36,0,0,0,.11-.2h.109v.979h-.109a.366.366,0,0,0-.11-.208.36.36,0,0,0-.239-.063H225.1v1.584h1.742a.356.356,0,0,0,.229-.063.333.333,0,0,0,.109-.218h.109v1.042h-.109a.3.3,0,0,0-.109-.2.354.354,0,0,0-.229-.063l-1.742-.073Z" transform="translate(-144.117 -119.349)"/><path d="M245.652,511.537h2.716a.373.373,0,0,0,.239-.053.351.351,0,0,0,.11-.208h.1v.99h-.11a.357.357,0,0,0-.109-.209.371.371,0,0,0-.239-.052h-3.523v-.093a.348.348,0,0,0,.209-.116.5.5,0,0,0,.05-.239v-3.721a.485.485,0,0,0-.05-.24.342.342,0,0,0-.209-.115v-.115h1.084v.115a.284.284,0,0,0-.2.115.37.37,0,0,0-.06.24l-.01,3.7Z" transform="translate(-157.317 -119.816)"/><path d="M265.362,511.537h2.716a.371.371,0,0,0,.239-.053.351.351,0,0,0,.11-.208h.1v.99h-.08a.411.411,0,0,0-.109-.209.371.371,0,0,0-.239-.052h-3.543v-.093a.288.288,0,0,0,.2-.116.4.4,0,0,0,.06-.239v-3.721a.383.383,0,0,0-.06-.24.287.287,0,0,0-.2-.115v-.115h1.085v.115a.34.34,0,0,0-.209.115.47.47,0,0,0,0,.24l-.069,3.7Z" transform="translate(-169.979 -119.816)"/><path d="M285.248,511.893v.114h-1.085v-.114a.4.4,0,0,0,.2-.116.4.4,0,0,0,.06-.239v-3.721a.413.413,0,0,0-.06-.25.332.332,0,0,0-.2-.1v-.125h1.085v.125a.4.4,0,0,0-.209.1.51.51,0,0,0-.05.25v3.721a.3.3,0,0,0,.259.355Z" transform="translate(-182.57 -119.797)"/><path d="M299.455,511.987l-1.892-3.94v3.471a.291.291,0,0,0,.249.354v.115h-1v-.093a.4.4,0,0,0,.2-.116.4.4,0,0,0,0-.239v-3.721a.413.413,0,0,0,0-.25.33.33,0,0,0-.2-.1v-.125h1.364v.125c-.139,0-.209.073-.209.145a.794.794,0,0,0,.1.293l1.414,2.969,1.4-2.969a.656.656,0,0,0,.1-.272c0-.083-.06-.145-.2-.166v-.125h1.364v.125a.312.312,0,0,0-.2.115.473.473,0,0,0-.05.24v3.721a.367.367,0,0,0,.05.229.373.373,0,0,0,.2.126v.114h-1.045v-.114a.339.339,0,0,0,.2-.126.358.358,0,0,0,0-.229v-3.471l-1.851,3.919Z" transform="translate(-190.696 -119.797)"/><path d="M323.758,510.674h-2.339l-.339.782a.585.585,0,0,0-.06.24c0,.083.08.135.209.177v.115h-1.1v-.093a.567.567,0,0,0,.4-.365l1.543-3.512a1.378,1.378,0,0,0,.12-.407c0-.083-.07-.135-.2-.145v-.125h1.294v.125c-.13,0-.2.073-.2.166a.457.457,0,0,0,0,.146.9.9,0,0,0,.06.156,1.124,1.124,0,0,0,.08.146l1.4,3.23a3.093,3.093,0,0,0,.229.417.412.412,0,0,0,.288.167v.114h-1.1v-.114c.12,0,.179-.053.179-.156l-.458-1.063Zm-.2-.459-1-2.283-1,2.283Z" transform="translate(-205.663 -119.797)"/><path d="M343.139,508.047v3.471a.411.411,0,0,0,.06.239.4.4,0,0,0,.2.116v.115h-1v-.093a.4.4,0,0,0,.2-.116.48.48,0,0,0,.05-.239v-3.721a.5.5,0,0,0-.05-.25.354.354,0,0,0-.2-.1v-.125h1.443v.125c-.139,0-.209.063-.209.187a.526.526,0,0,0,.159.323l2.618,3.127v-3.231a.527.527,0,0,0-.05-.25.332.332,0,0,0-.2-.1v-.125h1v.125a.329.329,0,0,0-.2.1.43.43,0,0,0,0,.25v3.721a.4.4,0,0,0,0,.24.386.386,0,0,0,.2.115v.115H346v-.166l.159-.063a.122.122,0,0,0,0-.1.243.243,0,0,0,0-.146l-.149-.177-2.867-3.356Z" transform="translate(-219.969 -119.797)"/><path d="M381.325,509.846v1.648a.34.34,0,0,0,.06.229.336.336,0,0,0,.2.125v.115h-1.075v-.093a.459.459,0,0,0,.2-.116.5.5,0,0,0,.05-.239v-3.721a.519.519,0,0,0-.05-.25.457.457,0,0,0-.2-.115v-.115h2.647a4.406,4.406,0,0,1,.687,0,1.284,1.284,0,0,1,.538.25,1.168,1.168,0,0,1,.348.417,1.3,1.3,0,0,1,.12.553c0,.741-.428,1.157-1.274,1.24l1.135,1.886a.445.445,0,0,0,.319.2v.1h-1.1v-.093c.1,0,.149-.063.149-.1a.551.551,0,0,0-.089-.209L383,509.867Zm0-.458h1.7a2.55,2.55,0,0,0,.944-.136c.219-.083.328-.314.328-.667a.723.723,0,0,0-.079-.355.74.74,0,0,0-.209-.282,1.62,1.62,0,0,0-.926-.2h-1.761v1.636Z" transform="translate(-244.439 -119.773)"/><path d="M402.807,509.36v1.719h2.747a.373.373,0,0,0,.239-.052.359.359,0,0,0,.109-.209h.11v.991h-.11a.354.354,0,0,0-.109-.208.374.374,0,0,0-.239-.053h-3.572v-.1a.287.287,0,0,0,.2-.116.4.4,0,0,0,.05-.239v-3.721a.393.393,0,0,0-.05-.24.286.286,0,0,0-.2-.114V506.9h3.552a.352.352,0,0,0,.229-.063.3.3,0,0,0,.109-.2h.109v.979h-.109a.364.364,0,0,0-.109-.208.354.354,0,0,0-.229-.063h-2.727v1.584h1.732a.356.356,0,0,0,.229-.063.337.337,0,0,0,.109-.218H405v1.042h-.12a.307.307,0,0,0-.109-.2.354.354,0,0,0-.229-.063l-1.732-.073Z" transform="translate(-258.227 -119.349)"/><path d="M424.888,510.674h-2.339l-.339.782a.57.57,0,0,0-.06.24c0,.083.08.135.209.177v.115h-1.1v-.093a.576.576,0,0,0,.4-.365l1.543-3.512a1.377,1.377,0,0,0,.12-.407c0-.083-.07-.135-.2-.145v-.125h1.294v.125c-.13,0-.2.073-.2.166a.4.4,0,0,0,0,.146.75.75,0,0,0,.06.156l.07.146,1.413,3.23a3.217,3.217,0,0,0,.228.417.4.4,0,0,0,.289.167v.114h-1.164v-.114c.12,0,.179-.053.179-.156l-.4-1.063Zm-.2-.459-1-2.283-1,2.283Z" transform="translate(-270.603 -119.797)"/><path d="M444.369,511.537h2.707a.373.373,0,0,0,.239-.053.361.361,0,0,0,.11-.208h.1v.99h-.1a.367.367,0,0,0-.11-.209.372.372,0,0,0-.239-.052h-3.544v-.093a.346.346,0,0,0,.209-.116.483.483,0,0,0,0-.239v-3.721a.486.486,0,0,0,0-.24.34.34,0,0,0-.209-.115v-.115h1.085v.115a.285.285,0,0,0-.2.115.381.381,0,0,0-.06.24l.01,3.7Z" transform="translate(-284.909 -119.816)"/><path d="M479.264,509.36v1.719h2.757a.357.357,0,0,0,.229-.052.307.307,0,0,0,.109-.209h.089v.991h-.12a.3.3,0,0,0-.11-.208.352.352,0,0,0-.229-.053h-3.523v-.1a.348.348,0,0,0,.209-.116.5.5,0,0,0,.05-.239v-3.721a.485.485,0,0,0-.05-.24.341.341,0,0,0-.209-.114V506.9h3.553a.342.342,0,0,0,.229-.063.369.369,0,0,0,.119-.2h.1v.979h-.1a.435.435,0,0,0-.109-.208.36.36,0,0,0-.239-.063h-2.757v1.584H481a.358.358,0,0,0,.239-.063.333.333,0,0,0,.11-.218h.109v1.042h-.109a.3.3,0,0,0-.11-.2.359.359,0,0,0-.239-.063l-1.731-.073Z" transform="translate(-307.343 -119.349)"/><path d="M502.847,507.53l-.428.9h-.1a1.319,1.319,0,0,0,0-.177.136.136,0,0,0-.069-.126.733.733,0,0,0-.179-.1,2.549,2.549,0,0,0-1.3-.3,2.512,2.512,0,0,0-1.054.208.719.719,0,0,0-.488.72.6.6,0,0,0,.109.364.618.618,0,0,0,.3.23,2.191,2.191,0,0,0,.537.1h.805a7.528,7.528,0,0,1,.846.063,1.474,1.474,0,0,1,.588.209.92.92,0,0,1,.368.416,1.227,1.227,0,0,1,.129.573,1.131,1.131,0,0,1-.318.834,1.9,1.9,0,0,1-.786.469,2.954,2.954,0,0,1-.936.145,3.8,3.8,0,0,1-1.5-.292c-.239-.1-.438-.2-.607-.292a.154.154,0,0,0-.09,0,.169.169,0,0,0-.139.094v.053l-.089-.063.507-.886.1.052v.177a.114.114,0,0,0,.05.094.405.405,0,0,0,.12.1l.14.093.1.053a3.011,3.011,0,0,0,1.482.375,2.667,2.667,0,0,0,.677-.093,1.5,1.5,0,0,0,.6-.3.746.746,0,0,0,.249-.573.661.661,0,0,0-.109-.354.6.6,0,0,0-.279-.229,1.311,1.311,0,0,0-.349-.084,2.944,2.944,0,0,0-.478,0h-.3l-.845-.063a2.383,2.383,0,0,1-.6-.135,1.18,1.18,0,0,1-.527-.375,1.073,1.073,0,0,1-.209-.688,1.138,1.138,0,0,1,.319-.823,1.966,1.966,0,0,1,.786-.469,3.182,3.182,0,0,1,.925-.146,3.953,3.953,0,0,1,1.742.4h.14c.05,0,.1-.052.149-.145Z" transform="translate(-320.166 -119.759)"/><path d="M521.543,507.145V510.9a.354.354,0,0,0,.05.229.37.37,0,0,0,.209.125v.115h-1.085v-.052a.4.4,0,0,0,.2-.115.508.508,0,0,0,.05-.239v-3.814h-1.443a.365.365,0,0,0-.239.062.357.357,0,0,0-.109.209h-.1v-.98h.1a.435.435,0,0,0,.109.208.456.456,0,0,0,.239.052H523a.36.36,0,0,0,.229-.062.353.353,0,0,0,.109-.2h.12v.98h-.109a.378.378,0,0,0-.119-.209.337.337,0,0,0-.229-.062Z" transform="translate(-333.418 -119.218)"/><path d="M540.313,510.674h-2.339l-.339.782a.569.569,0,0,0-.06.24c0,.083.07.135.2.177v.115h-1.1v-.093a.577.577,0,0,0,.4-.365l1.543-3.512a1.379,1.379,0,0,0,.12-.407c0-.083-.07-.135-.209-.145v-.125h1.294v.125c-.129,0-.189.073-.189.166a.931.931,0,0,0,0,.146l.07.156.07.146,1.414,3.23a3.238,3.238,0,0,0,.219.417.438.438,0,0,0,.288.167v.114h-1.164v-.114c.13,0,.189-.074.189-.156v-.063l-.408-1Zm-.2-.459-1-2.283-1,2.283Z" transform="translate(-344.723 -119.797)"/><path d="M558.256,507.145V510.9a.434.434,0,0,0,.05.229.415.415,0,0,0,.209.125v.115H557.43v-.052a.306.306,0,0,0,.259-.355v-3.814h-1.453a.34.34,0,0,0-.229.062.31.31,0,0,0-.109.209h-.109v-.98h.109a.376.376,0,0,0,.109.208.421.421,0,0,0,.229.052h3.474a.362.362,0,0,0,.229-.062.314.314,0,0,0,.109-.2h.109v.98h-.109a.372.372,0,0,0-.109-.209.368.368,0,0,0-.239-.062Z" transform="translate(-356.993 -119.218)"/><path d="M577.518,509.36v1.719h2.758a.346.346,0,0,0,.229-.052c.06,0,.09-.1.109-.209h.12v.991h-.12a.226.226,0,0,0-.109-.208.346.346,0,0,0-.229-.053H576.7v-.1a.318.318,0,0,0,.2-.116.484.484,0,0,0,.05-.239v-3.721a.463.463,0,0,0-.05-.24.312.312,0,0,0-.2-.114V506.9h3.544a.37.37,0,0,0,.239-.063.362.362,0,0,0,.109-.2h.109v.979h-.109a.3.3,0,0,0-.349-.271h-2.728v1.584h1.742a.357.357,0,0,0,.229-.063.333.333,0,0,0,.11-.218h.119v1.042H579.6a.3.3,0,0,0-.11-.2.355.355,0,0,0-.229-.063l-1.742-.073Z" transform="translate(-370.423 -119.349)"/></g></g></svg>